<svg width="24" height="23" viewBox="0 0 24 23" fill="none" xmlns="http://www.w3.org/2000/svg">
<path fill-rule="evenodd" clip-rule="evenodd" d="M3.53516 6.65199C3.53516 7.17011 3.95907 7.59402 4.47719 7.59402H19.5496C20.0678 7.59402 20.4917 7.17011 20.4917 6.65199C20.4917 6.13387 20.0678 5.70996 19.5496 5.70996H4.47719C3.95907 5.70996 3.53516 6.13387 3.53516 6.65199ZM11.0714 17.0139H12.9555C13.4736 17.0139 13.8975 16.59 13.8975 16.0719C13.8975 15.5538 13.4736 15.1299 12.9555 15.1299H11.0714C10.5533 15.1299 10.1294 15.5538 10.1294 16.0719C10.1294 16.59 10.5533 17.0139 11.0714 17.0139ZM16.7236 12.304H7.30336C6.78524 12.304 6.36133 11.8801 6.36133 11.362C6.36133 10.8438 6.78524 10.4199 7.30336 10.4199H16.7236C17.2418 10.4199 17.6657 10.8438 17.6657 11.362C17.6657 11.8801 17.2418 12.304 16.7236 12.304Z" fill="white"/>
</svg>
